<svg style="height: 56px;  " xmlns:dc="http://purl.org/dc/elements/1.1/" xmlns:cc="http://creativecommons.org/ns#" xmlns:rdf="http://www.w3.org/1999/02/22-rdf-syntax-ns#" xmlns:svg="http://www.w3.org/2000/svg" xmlns="http://www.w3.org/2000/svg" viewBox="0 0 234.33067 75.212532" height="75.212532" width="234.33067" xml:space="preserve" id="svg2" version="1.1"><metadata id="metadata8"><rdf:rdf><cc:work rdf:about=""><dc:format>image/svg+xml</dc:format><dc:type rdf:resource="http://purl.org/dc/dcmitype/StillImage"></dc:type></cc:work></rdf:rdf></metadata><defs id="defs6"></defs><g transform="matrix(1.3333333,0,0,-1.3333333,0,75.212533)" id="g10"><g id="g12"><path id="path14" style="fill:#ff4f4f;fill-opacity:1;fill-rule:evenodd;stroke:none" d="m 38.9004,56.2136 c 7.721,0 14.7115,-3.1298 19.7714,-8.1899 4.316,-4.316 7.2272,-10.036 7.99,-16.4163 -0.0952,-0.0589 -0.1885,-0.1221 -0.2789,-0.1896 h -1.1767 c -0.7206,6.0508 -3.4798,11.4761 -7.5722,15.5682 -4.7939,4.7939 -11.4177,7.7595 -18.7336,7.7595 -3.6159,0 -7.0622,-0.7248 -10.2024,-2.0364 -0.5355,0.3832 -1.1778,0.5905 -1.8409,0.5905 h -0.3985 c 3.7471,1.8652 7.9721,2.914 12.4418,2.914 z M 66.6621,24.8981 C 65.8993,18.5173 62.9881,12.7967 58.6718,8.4804 53.6119,3.4203 46.6214,0.2906 38.9004,0.2906 c -4.4705,0 -8.6958,1.0491 -12.4438,2.9148 h 0.4005 c 0.6628,0 1.3045,0.2072 1.8397,0.5899 3.1405,-1.3119 6.5875,-2.0367 10.2036,-2.0367 7.3162,0 13.9397,2.9653 18.7336,7.7596 4.0927,4.0926 6.8519,9.5181 7.5722,15.5693 h 1.1769 c 0.0905,-0.0672 0.1837,-0.1304 0.279,-0.1894 z M 19.2691,8.3418 19.1288,8.4804 c -2.259,2.2589 -4.1327,4.9025 -5.5154,7.8242 h 1.6347 c 1.2456,-2.461 2.8639,-4.7015 4.7809,-6.647 z m -5.6447,31.8818 c 1.3819,2.9118 3.2517,5.5474 5.5044,7.8001 l 0.1408,0.1392 0.7597,-1.3158 c -1.9111,-1.9392 -3.5249,-4.1718 -4.769,-6.6235 z"></path><path id="path16" style="fill:#ff4f4f;fill-opacity:1;fill-rule:evenodd;stroke:none" d="m 8.3341,35.8353 c -0.6755,0 -1.2234,0.5477 -1.2234,1.2232 0,0.6755 0.5479,1.2231 1.2234,1.2231 h 10.1033 c 0.6755,0 1.2231,-0.5476 1.2231,-1.2231 0,-0.6755 -0.5476,-1.2232 -1.2231,-1.2232 z M 5.7574,22.6434 c -0.6754,0 -1.2234,0.548 -1.2234,1.2232 0,0.6755 0.548,1.2234 1.2234,1.2234 h 10.1189 c 0.6755,0 1.2231,-0.5479 1.2231,-1.2234 0,-0.6752 -0.5476,-1.2232 -1.2231,-1.2232 z m 2.4583,-4.3971 c -0.6755,0 -1.2232,0.5477 -1.2232,1.2232 0,0.6755 0.5477,1.2231 1.2232,1.2231 h 10.2217 c 0.6755,0 1.2231,-0.5476 1.2231,-1.2231 0,-0.6755 -0.5476,-1.2232 -1.2231,-1.2232 z m -6.0574,8.7945 c -0.6755,0 -1.2232,0.5477 -1.2232,1.2232 0,0.6755 0.5477,1.2231 1.2232,1.2231 h 6.4576 c 0.6755,0 1.2234,-0.5476 1.2234,-1.2231 0,-0.6755 -0.5479,-1.2232 -1.2234,-1.2232 z m 3.7457,4.3971 c -0.6755,0 -1.2231,0.5477 -1.2231,1.2232 0,0.6755 0.5476,1.2234 1.2231,1.2234 h 10.002 c 0.6755,0 1.2232,-0.5479 1.2232,-1.2234 0,-0.6755 -0.5477,-1.2232 -1.2232,-1.2232 z"></path><path id="path18" style="fill:#234ba6;fill-opacity:1;fill-rule:evenodd;stroke:none" d="m 46.4026,16.5464 c 2.8049,0.4136 5.5114,1.5863 7.9047,3.2627 3.092,2.1656 5.6551,5.1607 7.236,8.4435 -1.5809,3.2828 -4.144,6.2779 -7.236,8.4436 -2.3933,1.6761 -5.1001,2.8491 -7.9047,3.2624 L 52.808,28.8641 c 0.2291,-0.3958 0.2112,-0.8666 -0.0062,-1.234 z M 12.8684,27.0295 c -0.6755,0 -1.2234,0.5476 -1.2234,1.2231 0,0.6755 0.5479,1.2232 1.2234,1.2232 h 5.7263 l 6.853,11.8698 -4.7213,8.1774 c -0.3376,0.583 -0.1387,1.3297 0.4444,1.6676 0.1928,0.1117 0.4034,0.1647 0.6115,0.1644 v 0.0028 h 5.0748 c 0.2999,0 0.5749,-0.1083 0.7878,-0.2877 l 12.1394,-8.5008 h 4.4081 c 4.0995,0 8.0975,-1.4854 11.5101,-3.8758 3.3792,-2.3664 6.1917,-5.6308 7.9574,-9.2177 h 3.4914 c 0.0525,0.068 0.1092,0.1324 0.1696,0.1927 0.3625,0.3626 0.8631,0.5868 1.4159,0.5868 0.5524,0 1.053,-0.2242 1.4156,-0.5868 0.3625,-0.3625 0.5867,-0.8631 0.5867,-1.4156 0,-0.5527 -0.2242,-1.0533 -0.5867,-1.4159 -0.3626,-0.3623 -0.8632,-0.5868 -1.4156,-0.5868 -0.5528,0 -1.0534,0.2245 -1.4159,0.5868 -0.0604,0.0604 -0.1168,0.1247 -0.1693,0.1925 h -3.4917 c -1.766,-3.587 -4.5782,-6.8514 -7.9574,-9.218 C 52.2899,15.4213 48.2919,13.936 44.1924,13.936 H 39.7843 L 27.6449,5.4351 C 27.432,5.2557 27.157,5.1474 26.8571,5.1474 H 21.7823 V 5.15 c -0.2081,-3e-4 -0.4187,0.053 -0.6115,0.1647 -0.5831,0.3376 -0.782,1.0845 -0.4444,1.6676 l 4.7213,8.1771 -6.853,11.8701 z M 27.4723,22.119 c -0.1307,-0.3101 -0.4882,-0.4555 -0.798,-0.3248 -0.3101,0.1304 -0.4555,0.4878 -0.3251,0.7979 l 0.2727,0.6449 h -3.0195 l 1.8573,-3.217 h 2.4715 l -0.5763,0.3654 c -0.2852,0.1805 -0.3696,0.5584 -0.1888,0.8433 0.1806,0.2851 0.5584,0.3696 0.8433,0.1887 l 2.3318,-1.4779 c 0.1837,-0.1058 0.3078,-0.3042 0.3078,-0.5312 0,-0.1044 -0.026,-0.2024 -0.0722,-0.2883 l -0.6092,-1.4414 c -0.1304,-0.3099 -0.4879,-0.4556 -0.798,-0.3249 -0.3098,0.1304 -0.4555,0.4878 -0.3248,0.798 l 0.2724,0.6448 H 26.166 l 1.3938,-2.4142 h 11.8474 2.6697 L 42.0619,16.4086 35.93,27.0292 H 21.4129 l 1.4831,-2.5688 h 2.5396 l -0.5763,0.3654 c -0.2852,0.1806 -0.3697,0.5585 -0.1888,0.8433 0.1808,0.2852 0.5584,0.3697 0.8433,0.1888 l 2.3318,-1.4782 c 0.1839,-0.1055 0.3078,-0.3039 0.3078,-0.531 0,-0.1043 -0.0261,-0.2024 -0.072,-0.2883 z M 39.4072,40.123 H 27.5598 L 21.4129,29.4758 H 35.93 l 5.5156,9.5533 0.6313,1.0939 z m 1.3578,-16.5867 6.1504,10.6529 -2.723,4.7163 -6.1503,-10.6529 z m 6.8551,9.4326 -6.1507,-10.6532 2.723,-4.716 6.1506,10.6529 z M 26.4801,7.5937 35.5365,13.936 H 27.5593 L 23.8978,7.5937 Z m 9.0564,34.9756 -9.0564,6.3419 h -2.5823 l 3.6615,-6.3419 z"></path></g><path id="path20" style="fill:#234ba6;fill-opacity:1;fill-rule:evenodd;stroke:none" d="m 79.0095,25.9478 v 13.015 h 5.7623 c 1.2889,0 2.3578,-0.4119 3.2003,-1.2391 0.8459,-0.824 1.2674,-1.8371 1.2674,-3.0361 0,-0.5205 -0.0839,-1.0069 -0.2449,-1.4593 -0.1642,-0.4555 -0.3564,-0.8209 -0.5763,-1.0999 -0.2231,-0.2789 -0.4462,-0.5173 -0.6786,-0.7157 -0.2291,-0.2013 -0.4244,-0.3376 -0.5885,-0.4088 l -0.2356,-0.127 2.7853,-4.9291 h -2.9772 l -2.5033,4.5572 h -2.4165 v -4.5572 z m 86.2489,5.4836 -1.58,4.2724 -1.5863,-4.2724 z m 0.9261,-2.4165 h -5.0187 l -1.1155,-3.0671 h -2.9772 l 5.1182,13.015 h 2.9679 l 5.118,-13.015 h -2.9773 z m -22.0978,9.9479 h 10.2206 v -2.5127 h -3.7114 V 25.9478 h -2.7884 v 10.5023 h -3.7208 z M 131.8618,28.4542 h 6.9706 v -2.5064 h -9.765 v 13.015 h 9.5763 v -2.5127 h -6.7819 v -2.6053 h 5.2917 v -2.5064 h -5.2917 z m -16.7874,10.5086 v -5.6724 l 5.1117,5.6724 h 3.25 l -4.83,-5.3907 5.2019,-7.6243 h -3.25 l -3.8137,5.5735 -1.6699,-1.8528 V 25.9478 H 112.28 v 13.015 z m -12.9926,-7.5314 -1.58,4.2724 -1.5863,-4.2724 z m 0.9261,-2.4165 h -5.0187 l -1.1155,-3.0671 h -2.9772 l 5.1182,13.015 h 2.9679 l 5.118,-13.015 h -2.9773 z M 86.451,34.6876 c 0,0.5079 -0.1672,0.9294 -0.5017,1.2639 -0.3379,0.3314 -0.7591,0.4986 -1.2674,0.4986 h -2.878 v -3.4418 h 2.878 c 0.5083,0 0.9295,0.1644 1.2674,0.4864 0.3345,0.3252 0.5017,0.722 0.5017,1.1929"></path><path id="path22" style="fill:#ff4f4f;fill-opacity:1;fill-rule:evenodd;stroke:none" d="M 83.1759,19.4607 V 14.559 h -1.0491 v 3.9555 H 80.0617 V 14.559 h -1.0525 v 4.9017 z m 3.4954,-1.3071 c -0.3053,-0.3109 -0.4584,-0.693 -0.4584,-1.1454 0,-0.453 0.1525,-0.8337 0.4584,-1.1438 0.3053,-0.3093 0.6777,-0.4643 1.1168,-0.4643 0.4388,0 0.8102,0.155 1.1155,0.4643 0.3058,0.3101 0.4583,0.6908 0.4583,1.1438 0,0.4524 -0.1528,0.8345 -0.4583,1.1454 -0.3056,0.3107 -0.6767,0.4658 -1.1155,0.4658 -0.4391,0 -0.8115,-0.1554 -1.1168,-0.4658 z m -0.7744,-2.9505 c -0.5137,0.4997 -0.7702,1.1023 -0.7702,1.807 0,0.7039 0.2565,1.306 0.7702,1.804 0.5142,0.4992 1.1443,0.7489 1.8912,0.7489 0.7455,0 1.3757,-0.2497 1.8899,-0.7489 0.5133,-0.498 0.7704,-1.1001 0.7704,-1.804 0,-0.7047 -0.2565,-1.3073 -0.7704,-1.807 -0.5137,-0.4998 -1.1444,-0.7504 -1.8899,-0.7504 -0.7469,0 -1.3776,0.2506 -1.8912,0.7504 z m 8.8846,4.3599 c 0.2579,0 0.5031,-0.0331 0.7353,-0.1 0.2319,-0.0672 0.4235,-0.1497 0.5726,-0.2452 0.1494,-0.0956 0.2815,-0.1914 0.3966,-0.2869 0.1145,-0.0955 0.197,-0.1766 0.2474,-0.2429 l 0.0785,-0.1026 -0.6664,-0.6662 c -0.0142,0.0187 -0.0323,0.0451 -0.0561,0.0771 -0.0238,0.0329 -0.078,0.089 -0.161,0.169 -0.0822,0.0796 -0.1741,0.1496 -0.2716,0.21 -0.0981,0.0607 -0.2268,0.1168 -0.3863,0.1681 -0.1596,0.051 -0.3221,0.076 -0.489,0.076 -0.4584,0 -0.8411,-0.1537 -1.1481,-0.4609 -0.3075,-0.3082 -0.462,-0.6908 -0.462,-1.1484 0,-0.4586 0.1542,-0.841 0.462,-1.1488 0.307,-0.307 0.6897,-0.4612 1.1481,-0.4612 0.1774,0 0.3481,0.0246 0.5111,0.0734 0.1632,0.049 0.2976,0.1066 0.4048,0.174 0.1074,0.0678 0.2021,0.1355 0.2837,0.2033 0.0828,0.0683 0.1403,0.1287 0.1783,0.1783 l 0.0547,0.0711 0.6327,-0.6661 C 96.8281,15.4071 96.8,15.3706 96.7629,15.3266 96.7255,15.2824 96.641,15.2031 96.5132,15.0911 96.3848,14.9783 96.245,14.8791 96.0987,14.7934 95.9528,14.7081 95.7591,14.6299 95.5213,14.559 c -0.2378,-0.0708 -0.4841,-0.1063 -0.7398,-0.1063 -0.7478,0 -1.3782,0.2506 -1.8924,0.7504 -0.5137,0.4997 -0.7702,1.1023 -0.7702,1.807 0,0.7039 0.2568,1.306 0.7702,1.804 0.5145,0.4992 1.1446,0.7489 1.8924,0.7489 z m 9.2316,-0.1023 V 14.559 h -1.0503 v 4.9017 z m -3.3605,-4.9017 h -1.9962 v 4.9017 h 1.0523 v -1.6101 h 0.9439 c 0.504,0 0.9224,-0.1576 1.2532,-0.4728 0.3314,-0.3158 0.4969,-0.707 0.4969,-1.175 0,-0.4665 -0.1655,-0.858 -0.4969,-1.1724 -0.3308,-0.3141 -0.7495,-0.4714 -1.2532,-0.4714 z m -0.9439,0.9437 h 0.9102 c 0.2089,0 0.3838,0.0683 0.5238,0.2032 0.1409,0.1355 0.2112,0.3011 0.2112,0.4969 0,0.1959 -0.0706,0.3612 -0.2112,0.4969 -0.1403,0.1358 -0.3152,0.2047 -0.5238,0.2047 h -0.9102 z m 10.6304,3.958 V 14.559 h -1.0502 v 3.9555 h -1.4349 v -0.5613 c 0,-0.6905 -0.038,-1.2699 -0.1145,-1.7385 -0.076,-0.468 -0.1891,-0.8277 -0.3385,-1.0783 -0.1488,-0.2505 -0.316,-0.4274 -0.5006,-0.5298 -0.1851,-0.1026 -0.4033,-0.1539 -0.6565,-0.1539 -0.1029,0 -0.2072,0.0105 -0.3118,0.0326 -0.1037,0.0218 -0.182,0.0431 -0.2321,0.0596 l -0.0851,0.0283 v 1.0006 c 0.1168,-0.045 0.2322,-0.0703 0.3487,-0.0711 0.1817,-0.0012 0.3302,0.0558 0.4425,0.1658 0.1125,0.11 0.2072,0.3506 0.2834,0.7209 0.076,0.3699 0.1157,0.8895 0.1157,1.5565 v 1.5148 z m 3.2831,0 v -2.1365 l 1.925,2.1365 h 1.2243 l -1.819,-2.0305 1.9588,-2.8712 h -1.2237 l -1.4364,2.0988 -0.629,-0.6976 V 14.559 H 112.57 v 4.9017 z m 9.2668,-4.9017 h -1.0491 v 3.1142 l -2.414,-3.1142 h -0.9125 v 4.9017 h 1.0525 v -3.1178 l 2.414,3.1178 h 0.9091 z m 9.4717,0 h -1.0491 v 3.1142 l -2.4143,-3.1142 h -0.9122 v 4.9017 h 1.0525 v -3.1178 l 2.414,3.1178 h 0.9091 z m 4.7531,2.5912 c 0.0235,-0.0091 0.0561,-0.0221 0.0981,-0.0394 0.0419,-0.0176 0.1162,-0.0593 0.2205,-0.1262 0.1043,-0.0669 0.1956,-0.144 0.2744,-0.2273 0.0788,-0.0842 0.1522,-0.2018 0.218,-0.3504 0.0658,-0.1485 0.0981,-0.3112 0.0981,-0.4838 0,-0.4111 -0.1738,-0.758 -0.5239,-1.0435 -0.3498,-0.2849 -0.8297,-0.4269 -1.4374,-0.4269 -0.2322,0 -0.459,0.0292 -0.6792,0.0879 -0.2191,0.0578 -0.4014,0.1281 -0.5448,0.2098 -0.1432,0.0816 -0.271,0.1644 -0.3816,0.246 -0.1097,0.0811 -0.1922,0.1491 -0.2403,0.2052 l -0.0794,0.0924 0.6327,0.6291 0.0547,-0.055 c 0.0224,-0.0224 0.0748,-0.0655 0.1539,-0.1262 0.0794,-0.0615 0.1647,-0.1156 0.2531,-0.1607 0.0888,-0.0454 0.2022,-0.0879 0.3385,-0.1247 0.1363,-0.0372 0.2778,-0.0564 0.4235,-0.0564 0.2894,0 0.5136,0.0606 0.6721,0.1811 0.1584,0.1208 0.2378,0.2696 0.2378,0.4479 0,0.182 -0.0734,0.333 -0.2202,0.4512 -0.1469,0.118 -0.366,0.1775 -0.6548,0.1775 h -0.6302 v 0.9125 h 0.5953 c 0.237,0 0.4192,0.0493 0.5459,0.1471 0.1262,0.0975 0.1891,0.2228 0.1891,0.3756 0,0.1508 -0.0663,0.2772 -0.1995,0.3767 -0.1336,0.1006 -0.3232,0.1497 -0.5695,0.1497 -0.1772,0 -0.3512,-0.0374 -0.519,-0.1123 -0.1693,-0.0751 -0.2923,-0.1494 -0.37,-0.2228 l -0.1261,-0.119 -0.6321,0.663 c 0.0139,0.0187 0.0374,0.0442 0.0697,0.0768 0.0326,0.0326 0.104,0.0935 0.2137,0.1797 0.1094,0.0865 0.2262,0.1613 0.3501,0.224 0.1244,0.0629 0.2883,0.1204 0.4913,0.174 0.2026,0.0536 0.4107,0.0802 0.6253,0.0802 0.5377,0 0.9703,-0.1349 1.2974,-0.4048 0.3271,-0.2695 0.4901,-0.589 0.4901,-0.9592 0,-0.1551 -0.0261,-0.2962 -0.0771,-0.4232 -0.0513,-0.1284 -0.1134,-0.2276 -0.1868,-0.3011 -0.0723,-0.0722 -0.1434,-0.1366 -0.2135,-0.1902 -0.0686,-0.0524 -0.1301,-0.089 -0.1819,-0.1074 z m 6.7776,2.3105 v -2.1365 l 1.925,2.1365 h 1.2243 l -1.8193,-2.0305 1.9594,-2.8712 h -1.224 l -1.4364,2.0988 -0.629,-0.6976 V 14.559 h -1.0522 v 4.9017 z m 9.2665,-4.9017 h -1.0488 v 3.1142 l -2.414,-3.1142 h -0.9125 v 4.9017 h 1.0525 v -3.1178 l 2.414,3.1178 h 0.9088 z m 1.7419,4.9017 h 3.8494 v -0.9462 h -1.3977 V 14.559 h -1.0503 v 3.9555 h -1.4014 z m 7.6938,-2.8366 -0.595,1.6089 -0.5976,-1.6089 z m 0.3489,-0.9102 h -1.8901 l -0.4201,-1.1549 h -1.1211 l 1.9273,4.9017 h 1.1177 l 1.9275,-4.9017 h -1.1211 z m 6.8522,3.7468 V 14.559 h -1.0488 v 1.7161 h -0.9102 l -0.9459,-1.7161 h -1.118 l 1.0491,1.8564 c -0.0221,0.0094 -0.0536,0.0238 -0.0936,0.0443 -0.0391,0.0201 -0.1097,0.0725 -0.21,0.1573 -0.0998,0.0842 -0.1894,0.1749 -0.2673,0.273 -0.0771,0.0975 -0.1469,0.2335 -0.2098,0.4073 -0.0626,0.1726 -0.0947,0.3572 -0.0947,0.5533 0,0.4536 0.1588,0.8354 0.4763,1.1455 0.3157,0.3093 0.7174,0.4646 1.2027,0.4646 z m -2.7989,-1.6101 c 0,-0.1774 0.0626,-0.3277 0.1891,-0.4493 0.1264,-0.1219 0.2854,-0.1834 0.477,-0.1834 h 1.084 v 1.2966 h -1.084 c -0.191,0 -0.3506,-0.0627 -0.477,-0.1879 -0.1265,-0.1256 -0.1891,-0.2849 -0.1891,-0.476"></path></g></svg>